<svg width="285" height="285" viewBox="0 0 285 285" fill="none" xmlns="http://www.w3.org/2000/svg">
<g clip-path="url(#clip0_1_16)">
<path d="M142.2 274.94C215.554 274.94 275.02 215.51 275.02 142.2C275.02 68.8897 215.554 9.46 142.2 9.46C68.8455 9.46 9.38 68.8897 9.38 142.2C9.38 215.51 68.8455 274.94 142.2 274.94Z" fill="#27242F"/>
<path d="M142.2 284.4C63.79 284.4 0 220.61 0 142.2C0 63.79 63.79 0 142.2 0C220.61 0 284.4 63.79 284.4 142.2C284.4 220.61 220.61 284.4 142.2 284.4ZM142.2 18.92C74.14 18.92 18.77 74.22 18.77 142.2C18.77 210.18 74.14 265.48 142.2 265.48C210.26 265.48 265.63 210.18 265.63 142.2C265.63 74.22 210.26 18.92 142.2 18.92Z" fill="#5F67B3"/>
<path d="M158.1 167.35C166.61 188.7 175.85 209.99 187.34 231.24C188.318 233.048 189.667 234.629 191.299 235.878C192.931 237.128 194.808 238.018 196.809 238.49C198.809 238.962 200.887 239.006 202.905 238.618C204.923 238.23 206.837 237.42 208.52 236.24C220.187 228 230.23 217.673 238.14 205.78C239.379 203.885 240.159 201.728 240.417 199.479C240.676 197.23 240.406 194.951 239.629 192.825C238.852 190.699 237.59 188.783 235.943 187.23C234.295 185.677 232.308 184.53 230.14 183.88C207.51 177 186.5 168.56 166 159.67C164.917 159.222 163.727 159.101 162.576 159.322C161.426 159.543 160.365 160.096 159.525 160.912C158.685 161.729 158.102 162.774 157.849 163.918C157.596 165.062 157.683 166.255 158.1 167.35Z" fill="#834AE7"/>
<path d="M169.56 149.38C191.09 158.71 213.11 167.48 236.95 174.38C238.92 174.949 240.988 175.097 243.02 174.815C245.051 174.533 247 173.828 248.742 172.745C250.483 171.661 251.977 170.224 253.128 168.527C254.278 166.829 255.059 164.909 255.42 162.89C258.021 148.538 257.892 133.824 255.04 119.52C254.588 117.297 253.624 115.209 252.225 113.423C250.825 111.637 249.029 110.202 246.978 109.231C244.927 108.261 242.678 107.781 240.41 107.831C238.141 107.882 235.916 108.46 233.91 109.52C212.47 120.84 191.08 129.96 169.73 138.39C168.655 138.841 167.735 139.596 167.082 140.562C166.429 141.528 166.071 142.664 166.053 143.829C166.035 144.995 166.357 146.141 166.98 147.127C167.603 148.113 168.499 148.896 169.56 149.38Z" fill="#724ADE"/>
<path d="M147.55 170.21C147.1 169.132 146.345 168.209 145.378 167.554C144.411 166.898 143.274 166.54 142.106 166.522C140.938 166.504 139.79 166.827 138.803 167.452C137.816 168.077 137.033 168.976 136.55 170.04C127.24 191.5 118.47 213.43 111.55 237.16C110.974 239.14 110.823 241.22 111.109 243.263C111.394 245.305 112.109 247.264 113.205 249.011C114.302 250.757 115.756 252.252 117.472 253.396C119.187 254.541 121.126 255.309 123.16 255.65C137.426 258.021 152.01 257.706 166.16 254.72C168.377 254.264 170.457 253.3 172.238 251.903C174.018 250.505 175.45 248.714 176.419 246.669C177.389 244.624 177.87 242.382 177.825 240.119C177.78 237.856 177.21 235.635 176.16 233.63C165 212.45 155.91 191.31 147.55 170.21Z" fill="#9449EF"/>
<path d="M137.89 115.16C138.341 116.238 139.097 117.16 140.064 117.814C141.032 118.469 142.17 118.826 143.338 118.843C144.506 118.86 145.653 118.536 146.639 117.91C147.626 117.284 148.408 116.384 148.89 115.32C158.3 93.64 167.13 71.46 174.06 47.43C174.624 45.4615 174.768 43.3966 174.483 41.3688C174.198 39.3411 173.491 37.3958 172.407 35.6586C171.323 33.9214 169.886 32.4311 168.19 31.2842C166.494 30.1372 164.576 29.359 162.56 29C148.078 26.4189 133.238 26.6157 118.83 29.58C116.609 30.0329 114.525 30.9965 112.741 32.3947C110.957 33.7928 109.523 35.587 108.553 37.6352C107.583 39.6834 107.103 41.9294 107.151 44.1953C107.199 46.4612 107.774 48.6848 108.83 50.69C120.22 72.21 129.4 93.71 137.89 115.16Z" fill="#504CCE"/>
<path d="M53.31 102.24C76.95 109.35 98.8 118.18 120.13 127.48C121.213 127.932 122.404 128.057 123.557 127.839C124.71 127.621 125.773 127.07 126.616 126.253C127.459 125.437 128.044 124.392 128.299 123.247C128.554 122.101 128.467 120.907 128.05 119.81C119.19 97.44 109.59 75.13 97.5 52.81C96.5189 51.0056 95.1681 49.4285 93.5359 48.1817C91.9037 46.935 90.0268 46.0466 88.0279 45.5747C86.0289 45.1028 83.9529 45.058 81.9354 45.4432C79.918 45.8284 78.0045 46.6349 76.32 47.81C63.8733 56.533 53.265 67.6204 45.1 80.44C43.8944 82.3485 43.1478 84.5106 42.9188 86.7564C42.6898 89.0021 42.9847 91.2704 43.7803 93.383C44.5759 95.4955 45.8505 97.3948 47.5041 98.9316C49.1576 100.468 51.1449 101.601 53.31 102.24Z" fill="#3F4DC6"/>
<path d="M126.45 166C126.904 164.916 127.029 163.723 126.811 162.569C126.593 161.415 126.04 160.35 125.223 159.507C124.405 158.663 123.357 158.078 122.21 157.825C121.063 157.571 119.867 157.66 118.77 158.08C96.96 166.74 75.2 176.08 53.49 187.85C51.6767 188.834 50.093 190.191 48.8435 191.833C47.5941 193.474 46.7075 195.362 46.2424 197.372C45.7773 199.382 45.7443 201.468 46.1456 203.491C46.5468 205.515 47.3732 207.43 48.57 209.11C57.0972 221.013 67.8027 231.193 80.12 239.11C82.0195 240.317 84.1729 241.068 86.4112 241.303C88.6495 241.538 90.9119 241.252 93.0209 240.466C95.1299 239.681 97.0283 238.417 98.5671 236.775C100.106 235.132 101.243 233.156 101.89 231C108.84 208 117.42 186.75 126.45 166Z" fill="#A548F7"/>
<path d="M158.67 120.12C158.219 121.203 158.096 122.395 158.316 123.547C158.535 124.7 159.088 125.763 159.905 126.604C160.722 127.446 161.768 128.03 162.914 128.283C164.059 128.537 165.254 128.449 166.35 128.03C188.27 119.33 210.14 109.89 231.97 98.03C233.757 97.0521 235.32 95.7104 236.557 94.0915C237.794 92.4727 238.678 90.6126 239.151 88.6311C239.625 86.6497 239.679 84.5909 239.308 82.5876C238.938 80.5842 238.151 78.6808 237 77C228.574 64.7991 217.884 54.3295 205.51 46.16C203.614 44.9213 201.455 44.1418 199.204 43.8834C196.954 43.6249 194.675 43.8947 192.547 44.6713C190.419 45.4478 188.502 46.7098 186.947 48.3569C185.392 50.0041 184.243 51.991 183.59 54.16C176.56 77.46 167.84 99.05 158.67 120.12Z" fill="#614BD6"/>
<path d="M114.82 137C93.18 127.63 71.06 118.81 47.12 111.89C45.1383 111.314 43.0571 111.164 41.0134 111.451C38.9697 111.737 37.0098 112.453 35.2629 113.552C33.516 114.651 32.0218 116.107 30.8785 117.825C29.7352 119.544 28.9689 121.484 28.63 123.52C26.2691 138.016 26.6797 152.827 29.84 167.17C30.3434 169.343 31.3393 171.371 32.7509 173.098C34.1625 174.825 35.952 176.205 37.9813 177.13C40.0106 178.056 42.2254 178.503 44.4549 178.437C46.6844 178.371 48.869 177.794 50.84 176.75C72.14 165.5 93.41 156.42 114.63 148.02C115.715 147.575 116.645 146.822 117.307 145.854C117.968 144.886 118.331 143.745 118.352 142.573C118.372 141.4 118.048 140.248 117.42 139.257C116.793 138.267 115.889 137.482 114.82 137Z" fill="#B647FF"/>
</g>
<defs>
<clipPath id="clip0_1_16">
<rect width="284.4" height="284.4" fill="white"/>
</clipPath>
</defs>
</svg>
